<?xml version="1.0" encoding="utf-8"?>
<!-- Generator: Adobe Illustrator 22.0.0, SVG Export Plug-In . SVG Version: 6.00 Build 0)  -->
<svg version="1.1" id="Layer_1" xmlns="http://www.w3.org/2000/svg" xmlns:xlink="http://www.w3.org/1999/xlink" x="0px" y="0px"
	 viewBox="0 0 521.7 719" style="enable-background:new 0 0 521.7 719;" xml:space="preserve">
<style type="text/css">
	.st0{fill:#000503;}
</style>
<g>
	<g>
		<path class="st0" d="M0,635.3h30.6c0.3,6,2.5,10.5,6.7,13.5c4.5,3,10.5,4.5,18,4.5c5.4,0,10-1,13.9-3.1c3.6-2.1,5.4-4.9,5.4-8.5
			c0-5.4-6.3-9.4-18.9-12.1c-5.4-0.9-9.4-1.8-12.1-2.7c-15.9-3.9-26.5-8.5-31.9-13.9c-6-5.4-9-12.6-9-21.6c0-11.4,4.3-20.8,13-28.3
			c9-6.9,20.7-10.3,35.1-10.3c15.6,0,28,3.4,37.3,10.3c8.7,7.5,13.3,17.2,13.9,29.2H82.7c-5.7,0-10-2.5-13-7.6
			c-1.2-1.2-2.4-2.4-3.6-3.6c-3.6-2.7-8.5-4-14.8-4c-6,0-10.5,0.9-13.5,2.7c-2.7,1.8-4,4.5-4,8.1c0,4.8,7.8,8.8,23.4,12.1
			c1.8,0.6,3.4,1.1,4.7,1.3c1.3,0.3,2.6,0.5,3.8,0.5c15.3,3.9,25.9,8.4,31.9,13.5c5.7,5.4,8.5,12.6,8.5,21.6
			c0,13.2-4.8,23.4-14.4,30.6c-9,6.6-22.5,9.9-40.5,9.9c-17.1,0-29.8-3.4-38.2-10.3C4.3,660.2,0,650.2,0,637C0,637,0,635.3,0,635.3z
			"/>
		<path class="st0" d="M153.1,703.7c0,4.2-1.5,7.8-4.5,10.8s-6.6,4.5-10.8,4.5h-15.3V607c0-21,6.1-35.3,18.4-42.9
			c12.3-7.6,25.6-11.5,40-11.5c7.5,0,15.1,1.4,22.7,4.3c7.6,2.9,13.7,7,18.2,12.4c9,11.7,13.5,26.7,13.5,45
			c0,18.9-4.5,34.2-13.5,45.9c-9,11.4-20.5,17.1-34.6,17.1c-7.5,0-14.1-1.3-19.8-4c-6-3-10.8-7.6-14.4-13.9v44.3H153.1z
			 M204.4,615.6c0-11.7-2.2-20.7-6.7-27s-10.9-9.4-19.3-9.4c-8.1,0-14.4,3.1-18.9,9.4c-4.2,5.7-6.3,14.7-6.3,27
			c0,11.4,2.2,19.9,6.7,25.6c4.5,6.3,10.9,9.4,19.3,9.4c7.8,0,13.9-3.1,18.4-9.4S204.4,626.4,204.4,615.6z"/>
		<path class="st0" d="M328.7,670c-6.3,3.3-13,5.3-20,6.1c-7,0.7-13.3,1.1-18.7,1.1c-10.8,0-20.2-2.9-28.3-8.8
			c-8.1-5.8-12.1-15.5-12.1-29c0-12.6,3.7-21.6,11-27c7.3-5.4,16.7-9,28.1-10.8c1.5,0,3.3-0.2,5.4-0.7c2.1-0.4,4.5-0.8,7.2-1.1
			c13.2-1.8,19.8-5.7,19.8-11.7c0-4.5-2.3-7.4-7-8.8c-4.6-1.3-8.9-2-12.8-2c-4.2,0-7.9,0.6-11.2,1.8c-3.3,1.2-5.7,3.4-7.2,6.7h-30.1
			c1.2-9.3,5.4-16.9,12.6-22.9c8.1-6.9,19.6-10.3,34.6-10.3c16.8,0,29.4,2.9,37.8,8.5c8.7,6,13,14.4,13,25.2v40.9
			c0,12-2.2,21.4-6.5,28.1C339.9,662.1,334.7,667,328.7,670z M321.5,614.7c-4.2,2.1-10,4-17.5,5.8l-10.3,2.2
			c-5.4,1.5-9.3,3.4-11.7,5.8c-2.1,3.3-3.1,6.6-3.1,9.9c0,4.5,1.3,8.1,4,10.8c2.7,2.4,6.6,3.6,11.7,3.6c8.4,0,15-2.4,19.8-7.2
			s7.2-11.4,7.2-19.8v-11.1H321.5z"/>
		<path class="st0" d="M471,674.9h-15.7c-4.5,0-8.2-1.4-11-4.3c-2.9-2.8-4.3-6.5-4.3-11v-61.1c0-7.2-2.2-12.4-6.5-15.7
			s-9.2-4.9-14.6-4.9s-10.2,1.7-14.4,4.9c-4.2,3.3-6.3,8.5-6.3,15.7v76.4h-31.5v-70.1c0-20.4,5.3-34,16-40.9
			c10.6-6.9,22.4-10.6,35.3-11.2c13.2,0,25.3,3.4,36.4,10.3c11.1,6.9,16.6,20.8,16.6,41.8V674.9z"/>
		<path class="st0" d="M490.2,520.3h16.2c4.2,0,7.8,1.5,10.8,4.5s4.5,6.6,4.5,10.8v9.4h-31.5V520.3z M490.2,555.3h16.2
			c4.2,0,7.8,1.5,10.8,4.5s4.5,6.6,4.5,10.8v104.3h-31.5V555.3z"/>
	</g>
	<g>
		<path class="st0" d="M193.3,238.2H236c0.4,8.4,3.5,14.6,9.4,18.8c6.3,4.2,14.6,6.3,25.1,6.3c7.5,0,14-1.5,19.4-4.4
			c5-2.9,7.5-6.9,7.5-11.9c0-7.5-8.8-13.2-26.3-16.9c-7.5-1.3-13.2-2.5-16.9-3.8c-22.2-5.4-37-11.9-44.5-19.4
			c-8.4-7.5-12.5-17.6-12.5-30.1c0-15.9,6.1-29.1,18.2-39.5c12.5-9.6,28.9-14.4,48.9-14.4c21.7,0,39.1,4.8,52.1,14.4
			c12.1,10.5,18.6,24.1,19.4,40.8h-27c-7.9,0-14-3.5-18.2-10.7c-1.7-1.7-3.4-3.3-5-5c-5-3.8-11.9-5.6-20.7-5.6
			c-8.4,0-14.6,1.3-18.8,3.8c-3.8,2.5-5.6,6.3-5.6,11.3c0,6.7,10.9,12.3,32.6,16.9c2.5,0.8,4.7,1.5,6.6,1.9s3.7,0.6,5.3,0.6
			c21.3,5.4,36.2,11.7,44.5,18.8c7.9,7.5,11.9,17.6,11.9,30.1c0,18.4-6.7,32.6-20.1,42.7c-12.5,9.2-31.4,13.8-56.4,13.8
			c-23.8,0-41.6-4.8-53.3-14.4c-12.1-9.6-18.2-23.6-18.2-42L193.3,238.2L193.3,238.2z"/>
	</g>
	<path class="st0" d="M267.3,0C153.7,0,61.6,92.1,61.6,205.8s61.2,158.5,205.8,317c144.6-158.5,205.8-203.3,205.8-317S381,0,267.3,0
		z M267.3,350.4c-79.9,0-144.6-64.7-144.6-144.6S187.5,61.2,267.3,61.2s144.6,64.7,144.6,144.6S347.2,350.4,267.3,350.4z"/>
</g>
</svg>
