<svg height="511pt" viewBox="-123 1 511 511.9995" width="511pt" xmlns="http://www.w3.org/2000/svg"><path d="m248.425781 303.601562c.152344-9.082031 1.289063-17.804687 2.496094-27.042968.414063-3.183594.832031-6.429688 1.21875-9.726563.003906-.042969.015625-.082031.019531-.121093.570313-4.871094 1.023438-9.554688 1.210938-14.414063 10.640625-17.835937 14.875-38.421875 11.910156-58.316406-3.789062-25.410157-17.9375-48.269531-42.050781-67.945313-10.582031-8.636718-22.046875-15.777344-33.195313-21.632812 14.375-19.332032 16.730469-43.75 5.398438-65.816406-1.894532-3.6875-6.421875-5.140626-10.109375-3.246094-3.6875 1.894531-5.144531 6.417968-3.25 10.109375 7.355469 14.316406 8.957031 34.636719-5.808594 52.253906-8.257813-3.714844-16.027344-6.710937-22.726563-9.035156-16.789062-5.828125-33.386718-9.265625-48.828124-12.113281-9.488282-1.746094-19.03125-1.875-28.335938-.445313-1.421875-7.648437-.789062-15.664063 2.019531-23.707031 7.585938-21.726563 29.089844-36.734375 53.535157-37.386719 10.359374.277344 19.972656 2.941406 28.574218 7.925781 3.589844 2.078125 8.183594.855469 10.261719-2.730468 2.078125-3.589844.851563-8.183594-2.734375-10.261719-10.707031-6.203125-23.128906-9.644531-35.921875-9.949219-.121094 0-.238281 0-.355469 0-30.738281.730469-57.878906 19.800781-67.535156 47.449219-3.789062 10.84375-4.519531 21.808593-2.417969 32.234375-3.21875 1.101562-6.390625 2.40625-9.492187 3.90625-3.027344 1.460937-6.058594 2.976562-9.011719 4.5-6.378906 3.285156-9.828125 9.996094-8.796875 17.089844 1.039062 7.113281 6.277344 12.574218 13.347656 13.90625 5.546875 1.046874 10.914063 2.21875 16.152344 3.480468-8.066406 5.285156-15.585938 11.167969-22.445312 17.589844-18.066407 16.90625-30.335938 34.125-36.472657 51.175781-7.542969 20.960938-5.761719 41.207031 5.277344 60.242188.082031 2.285156.210937 4.574219.410156 6.941406.527344 6.179687 1.316407 12.207031 2.074219 18.035156.039062.292969.074219.578125.113281.863281.273438 2.09375.542969 4.183594.800781 6.273438.816407 6.675781 1.472657 13.195312 1.585938 19.914062.789062 46.367188 34.007812 89.480469 78.367188 107.890626v7.292968c0 2.835938-1.683594 5.382813-4.289063 6.492188l-55.226563 23.53125c-14.105468 6.007812-23.214843 19.796875-23.214843 35.128906v20.554688c0 4.148437 3.359375 7.507812 7.507812 7.507812h226.71875c4.148438 0 7.507813-3.359375 7.507813-7.507812v-20.554688c0-15.332031-9.113282-29.117188-23.214844-35.128906l-55.226562-23.53125c-2.605469-1.109375-4.289063-3.65625-4.289063-6.492188v-7.261718c44.394531-18.390626 77.652344-61.527344 78.441406-107.921876zm-41.347656-171.003906c20.863281 15.214844 39.246094 36.085938 43.351563 63.597656 1.898437 12.738282.21875 25.851563-4.75 38.023438-6.34375-11.4375-17.550782-28.722656-35.347657-47.285156-11.875-12.386719-27.804687-26.351563-48.382812-39.507813 14.296875-5.589843 29.402343-10.550781 45.128906-14.828125zm-156.445313-28.265625c-.277343-.050781-1.113281-.207031-1.273437-1.316406-.15625-1.074219.550781-1.441406.820313-1.582031 2.835937-1.464844 5.75-2.917969 8.660156-4.324219 9.46875-4.578125 19.980468-6.933594 30.519531-6.933594 4.226563 0 8.460937.378907 12.628906 1.148438 7.953125 1.464843 16.214844 3.101562 24.601563 5.140625-15.523438 3.460937-30.277344 8.648437-44.011719 15.472656-10.078125-2.914062-20.707031-5.484375-31.945313-7.605469zm-23.574218 165.019531c-.023438-.195312-.046875-.394531-.074219-.589843-.609375-4.890625-1.136719-9.894531-1.425781-14.917969.222656-.480469 5.523437-11.9375 19.1875-27.933594 2.695312-3.15625 2.320312-7.894531-.832032-10.585937-3.152343-2.695313-7.890624-2.316407-10.585937.832031-6.25 7.320312-10.921875 13.800781-14.289063 18.964844-4.773437-12.40625-4.699218-25.167969.171876-38.699219 5.324218-14.792969 16.292968-30.035156 32.605468-45.300781 9.703125-9.089844 20.859375-17.007813 33.167969-23.546875 15.972656-8.511719 33.574219-14.554688 52.308594-17.960938 6.261719-1.136719 14.355469-2.433593 22.320312-2.636719 10.714844 4.320313 20.816407 9.324219 30.191407 14.941407-18.253907 5.527343-35.613282 11.976562-51.777344 19.242187-30.386719 13.644532-57.058594 30.3125-79.269532 49.539063-3.132812 2.714843-3.476562 7.457031-.761718 10.589843 2.714844 3.136719 7.453125 3.476563 10.589844.765626 21.105468-18.269532 46.539062-34.148438 75.597656-47.199219.21875-.097657.441406-.191407.660156-.285157 23.585938 13.792969 41.347656 28.96875 54.125 42.210938 25.449219 26.375 36.726562 50.339844 39.046875 55.664062-4.6875-3.097656-9.167969-6.59375-13.554687-10.101562l-2.335938-1.871094c-12.160156-9.71875-24.734375-19.773437-35.742188-30.972656-9.265624-9.425781-24.652343-9.800781-34.304687-.84375-1.09375 1.015625-2.210937 2.007812-3.324219 2.953125-29.1875 24.796875-69.933594 45.464844-121.214844 61.484375-.160156-1.242188-.320312-2.488281-.480468-3.742188zm196.554687 193.273438c8.558594 3.644531 14.085938 12.011719 14.085938 21.3125v13.046875h-211.703125v-13.046875c0-9.300781 5.527344-17.667969 14.082031-21.3125l55.226563-23.53125c8.152343-3.472656 13.421874-11.445312 13.421874-20.304688v-2.136718c7.339844 2.003906 14.902344 3.335937 22.597657 3.910156.1875.015625.371093.023438.558593.023438s.375-.007813.558594-.023438c7.671875-.570312 15.207032-1.898438 22.527344-3.890625v2.117187c0 8.859376 5.265625 16.828126 13.417969 20.304688zm-91.730469-57.078125c-25.121093-2.023437-50.53125-13.972656-69.792968-32.84375-20.039063-19.632813-31.304688-44.265625-31.734375-69.359375-.085938-5.132812-.464844-10.164062-.972657-15.109375 54.453126-16.734375 97.863282-38.648437 129.089844-65.179687 1.277344-1.085938 2.5625-2.230469 3.820313-3.394532 3.753906-3.484375 9.753906-3.320312 13.378906.363282 11.640625 11.839843 24.570313 22.179687 37.074219 32.175781l2.332031 1.867187c6.972656 5.582032 14.222656 10.804688 21.59375 15.570313-.210937 1.671875-.425781 3.335937-.640625 4.976562-1.207031 9.246094-2.453125 18.804688-2.621094 28.730469-.429687 25.09375-11.699218 49.726562-31.734375 69.355469-19.257812 18.875-44.667969 30.824219-69.792969 32.847656zm0 0"/><path d="m192.824219 302.011719c-3.589844-2.078125-8.183594-.855469-10.261719 2.730469-1.214844 2.101562-3.476562 3.40625-5.898438 3.40625-2.421874 0-4.679687-1.304688-5.898437-3.40625-2.074219-3.589844-6.671875-4.8125-10.257813-2.734376-3.589843 2.078126-4.8125 6.671876-2.734374 10.257813 3.890624 6.722656 11.128906 10.898437 18.890624 10.898437 7.761719 0 14.996094-4.171874 18.890626-10.890624 2.078124-3.589844.855468-8.183594-2.730469-10.261719zm0 0"/><path d="m102.535156 302.011719c-3.585937-2.078125-8.179687-.855469-10.257812 2.730469-1.21875 2.101562-3.476563 3.40625-5.898438 3.40625s-4.683594-1.304688-5.898437-3.40625c-2.078125-3.589844-6.671875-4.8125-10.257813-2.734376-3.589844 2.078126-4.8125 6.671876-2.734375 10.257813 3.890625 6.722656 11.128907 10.898437 18.890625 10.898437 7.757813 0 14.996094-4.171874 18.890625-10.890624 2.078125-3.589844.855469-8.183594-2.734375-10.261719zm0 0"/><path d="m86.378906 276.59375c-24.378906 0-44.210937 15.851562-44.210937 35.335938 0 19.484374 19.832031 35.332031 44.210937 35.332031s44.210938-15.847657 44.210938-35.332031c0-19.484376-19.832032-35.335938-44.210938-35.335938zm0 55.65625c-15.828125 0-29.195312-9.308594-29.195312-20.320312 0-11.015626 13.367187-20.320313 29.195312-20.320313s29.195313 9.304687 29.195313 20.320313c0 11.011718-13.367188 20.320312-29.195313 20.320312zm0 0"/><path d="m220.875 311.929688c0-19.484376-19.832031-35.335938-44.210938-35.335938-24.378906 0-44.210937 15.851562-44.210937 35.335938 0 19.484374 19.832031 35.332031 44.210937 35.332031 24.378907 0 44.210938-15.847657 44.210938-35.332031zm-44.210938 20.320312c-15.828124 0-29.195312-9.308594-29.195312-20.320312 0-11.015626 13.367188-20.320313 29.195312-20.320313 15.828126 0 29.195313 9.304687 29.195313 20.320313 0 11.011718-13.367187 20.320312-29.195313 20.320312zm0 0"/></svg>