<?xml version="1.0" encoding="iso-8859-1"?>
<!-- Generator: Adobe Illustrator 19.0.0, SVG Export Plug-In . SVG Version: 6.00 Build 0)  -->
<svg version="1.1" id="Layer_1" xmlns="http://www.w3.org/2000/svg" xmlns:xlink="http://www.w3.org/1999/xlink" x="0px" y="0px"
	 viewBox="0 0 512 512" style="enable-background:new 0 0 512 512;" xml:space="preserve">
<g>
	<g>
		<g>
			<path d="M106.667,106.667c29.406,0,53.333-23.927,53.333-53.333S136.073,0,106.667,0S53.333,23.927,53.333,53.333
				S77.26,106.667,106.667,106.667z M106.667,21.333c17.646,0,32,14.354,32,32c0,17.646-14.354,32-32,32c-17.646,0-32-14.354-32-32
				C74.667,35.688,89.021,21.333,106.667,21.333z"/>
			<path d="M213.333,288c0-1.292,0-2.073-21.656-121.073C189.729,144.74,171.521,128,149.333,128H64
				c-22.188,0-40.396,16.74-42.219,37.958C0,285.927,0,286.708,0,288c0,16.865,13.115,30.719,29.677,31.917l-18.802,93.99
				c-0.625,3.135,0.188,6.385,2.208,8.854c2.031,2.469,5.052,3.906,8.25,3.906h40.75l12.729,76.417
				c0.854,5.146,5.302,8.917,10.521,8.917H128c5.219,0,9.667-3.771,10.521-8.917l12.729-76.417H192c3.198,0,6.219-1.438,8.25-3.906
				c2.021-2.469,2.833-5.719,2.208-8.854l-18.802-93.99C200.219,318.719,213.333,304.865,213.333,288z M181.333,298.667h-10.667
				c-3.198,0-6.219,1.438-8.25,3.906c-2.021,2.469-2.833,5.719-2.208,8.854l18.781,93.906h-36.771
				c-5.219,0-9.667,3.771-10.521,8.917l-12.729,76.417H94.365L81.635,414.25c-0.854-5.146-5.302-8.917-10.521-8.917H34.344
				l18.781-93.906c0.625-3.135-0.188-6.385-2.208-8.854c-2.031-2.469-5.052-3.906-8.25-3.906H32c-5.885,0-10.667-4.781-10.76-9.313
				c0.552-3.771,13.188-73.583,21.667-120.552c0.979-11.104,10.042-19.469,21.094-19.469h85.333
				c11.052,0,20.115,8.365,21.219,20.438c8.052,44.302,20.063,110.667,21.427,118.896
				C191.635,294.24,186.99,298.667,181.333,298.667z"/>
			<path d="M493.798,327.81C504.869,318.03,512,303.896,512,288c0-29.406-23.927-53.333-53.333-53.333
				c-12.052,0-23.059,4.171-32,10.939v-26.939C426.667,203.958,414.708,192,400,192c-14.708,0-26.667,11.958-26.667,26.667V256H320
				v-32c0-17.646-14.354-32-32-32h-48c-14.708,0-26.667,11.958-26.667,26.667c0,14.708,11.958,26.667,26.667,26.667h11.583
				l-0.542,0.542c-10.563,10.563-16.375,24.604-16.375,39.563c0,13.501,5.006,25.733,13.004,35.405
				c-19.551,3.885-34.337,21.146-34.337,41.824v10.667c0,5.896,4.771,10.667,10.667,10.667h277.333
				c5.896,0,10.667-4.771,10.667-10.667v-10.667C512,348.25,504.775,335.536,493.798,327.81z M416,319.671
				c0.085,0.115,0.186,0.215,0.272,0.329h-0.544C415.814,319.885,415.915,319.785,416,319.671z M320,277.333h64
				c5.896,0,10.667-4.771,10.667-10.667v-48c0-5.875,10.667-5.875,10.667,0V288c0,17.646-14.354,32-32,32H320V277.333z M240,224
				c-2.938,0-5.333-2.396-5.333-5.333s2.396-5.333,5.333-5.333h48c5.885,0,10.667,4.781,10.667,10.667v32h-27.583l13.792-13.792
				c3.052-3.052,3.969-7.635,2.313-11.625c-1.646-3.99-5.542-6.583-9.854-6.583H240z M298.667,277.333V320h-8.104
				C271.5,320,256,304.479,256,285.396c0-2.762,0.422-5.441,1.048-8.063H298.667z M234.667,362.667
				c0-11.76,9.573-21.333,21.333-21.333h34.563h82.771h96c11.76,0,21.333,9.573,21.333,21.333H234.667z M458.667,320
				c-17.646,0-32-14.354-32-32s14.354-32,32-32s32,14.354,32,32S476.313,320,458.667,320z"/>
		</g>
	</g>
</g>
<g>
</g>
<g>
</g>
<g>
</g>
<g>
</g>
<g>
</g>
<g>
</g>
<g>
</g>
<g>
</g>
<g>
</g>
<g>
</g>
<g>
</g>
<g>
</g>
<g>
</g>
<g>
</g>
<g>
</g>
</svg>
