<svg height="512pt" viewBox="0 0 512.00075 512" width="512pt" xmlns="http://www.w3.org/2000/svg"><path d="m266 502c0 5.523438-4.476562 10-10 10s-10-4.476562-10-10 4.476562-10 10-10 10 4.476562 10 10zm0 0"/><path d="m482 276h-3v-20c0-22.054688-17.941406-40-40-40-22.054688 0-40 17.945312-40 40v20h-43v-20c0-22.054688-17.941406-40-40-40-22.054688 0-40 17.945312-40 40v20h-70v-136h110c5.523438 0 10-4.476562 10-10 0-71.679688-58.316406-130-130-130-71.679688 0-130 58.320312-130 130 0 5.523438 4.476562 10 10 10h110v136h-43v-50c0-5.523438-4.476562-10-10-10h-88.855469l-27.074219-27.070312c-3.902343-3.90625-10.234374-3.90625-14.140624 0-3.90625 3.90625-3.90625 10.238281 0 14.144531l27.070312 27.070312v45.855469c-16.542969 0-30 13.457031-30 30v196c0 5.523438 4.476562 10 10 10h201c5.523438 0 10-4.476562 10-10s-4.476562-10-10-10h-191v-61.378906c5.890625 3.414062 12.71875 5.378906 20 5.378906h63c11.9375 0 22.664062-5.261719 30-13.585938 7.335938 8.324219 18.0625 13.585938 30 13.585938h63c11.9375 0 22.664062-5.261719 30-13.585938 7.335938 8.324219 18.0625 13.585938 30 13.585938h63c11.9375 0 22.664062-5.261719 30-13.585938 7.335938 8.324219 18.0625 13.585938 30 13.585938h63c7.285156 0 14.113281-1.964844 20-5.378906v61.378906h-191c-5.523438 0-10 4.476562-10 10s4.476562 10 10 10h201c5.523438 0 10-4.476562 10-10v-196c0-16.542969-13.457031-30-30-30zm-286-256c13.546875 0 32.917969 38.628906 34.84375 100h-69.683594c1.925782-61.371094 21.292969-100 34.839844-100zm109.550781 100h-54.714843c-.898438-30.101562-6.488282-68.722656-21.179688-94.734375 41.195312 13.269531 71.867188 50.214844 75.894531 94.734375zm-143.207031-94.734375c-14.6875 26.003906-20.277344 64.617187-21.179688 94.734375h-54.710937c4.027344-44.519531 34.695313-81.464844 75.890625-94.734375zm256.65625 230.734375c0-11.027344 8.972656-20 20-20s20 8.972656 20 20v20h-40zm-20 80h-103v-40h103zm-103-80c0-11.027344 8.972656-20 20-20s20 8.972656 20 20v20h-40zm-246-20h73v40h-73zm216 160c0-5.523438-4.476562-10-10-10s-10 4.476562-10 10c0 11.027344-8.972656 20-20 20h-63c-11.027344 0-20-8.972656-20-20 0-5.523438-4.476562-10-10-10s-10 4.476562-10 10c0 11.027344-8.972656 20-20 20h-63c-11.027344 0-20-8.972656-20-20v-90c0-5.511719 4.488281-10 10-10h246v117.292969c-5.96875-3.464844-10-9.910157-10-17.292969zm123 0c0-5.523438-4.476562-10-10-10s-10 4.476562-10 10c0 11.027344-8.972656 20-20 20h-53v-60h103v57.292969c-5.96875-3.464844-10-9.910157-10-17.292969zm83 20h-53v-120h63c5.515625 0 10 4.488281 10 10v90c0 11.027344-8.972656 20-20 20zm0 0"/></svg>