<?xml version="1.0" encoding="iso-8859-1"?>
<!-- Generator: Adobe Illustrator 19.0.0, SVG Export Plug-In . SVG Version: 6.00 Build 0)  -->
<svg version="1.1" id="Capa_1" xmlns="http://www.w3.org/2000/svg" xmlns:xlink="http://www.w3.org/1999/xlink" x="0px" y="0px"
	 viewBox="0 0 497.296 497.296" style="enable-background:new 0 0 497.296 497.296;" xml:space="preserve">
<g>
	<g>
		<g>
			<path d="M249.296,160.648h144c8.824,0,16-7.176,16-16v-80c0-8.824-7.176-16-16-16h-144c-8.824,0-16,7.176-16,16v80
				C233.296,153.472,240.472,160.648,249.296,160.648z M249.296,64.648h144l0.016,80H249.296V64.648z"/>
			<rect x="263.347" y="96.656" transform="matrix(0.7071 -0.7071 0.7071 0.7071 13.0705 240.8662)" width="67.879" height="16"/>
			<rect x="325.303" y="99.67" transform="matrix(-0.7071 -0.7071 0.7071 -0.7071 486.5053 434.8009)" width="16" height="33.944"/>
			
				<rect x="353.998" y="77.649" transform="matrix(-0.7071 -0.7071 0.7071 -0.7071 555.7719 406.1307)" width="16" height="20.624"/>
			<path d="M456.032,287.28l-21.592-5.888c4.224-4.328,6.856-10.224,6.856-16.744v-208c0-30.872-25.128-56-56-56h-128
				c-30.872,0-56,25.128-56,56v208c0,6.52,2.632,12.416,6.856,16.744l-21.056,5.744l-18.992-18.992l10.488-3.496l-20.976-6.992
				l-17.992-17.992l-7.304,2.088l20.128-40.248l-46.656,23.328l-16.496-49.48L72.8,224.832l-46.656-23.328l23.328,46.656L0,264.648
				l49.48,16.496L26.152,327.8l46.656-23.328l16.488,49.472l16.496-49.48l41.96,20.976c-1.512,5.088-2.456,10.384-2.456,15.872
				v155.336h208h104v-48c22.056,0,40-17.944,40-40v-67.336C497.296,316.128,480.328,293.904,456.032,287.28z M217.296,56.648
				c0-22.056,17.944-40,40-40h128c22.056,0,40,17.944,40,40v208c0,4.416-3.584,8-8,8h-192c-4.416,0-8-3.584-8-8V56.648z
				 M348.952,288.648c-5.608,9.64-16.032,16-27.656,16c-11.624,0-22.04-6.36-27.648-16H348.952z M116.664,292.016l-14.096-7.056
				l-8.264,3.368l-5.008,15.024l-3.816-11.424l-1.52-3.736l-7.936-3.232l-14.096,7.056l7.056-14.096l-3.368-8.264l-15.024-5.008
				l11.424-3.816l3.736-1.52l3.232-7.936l-7.056-14.096l14.096,7.056l8.264-3.368l5.008-15.024l3.816,11.424l1.52,3.736l7.936,3.232
				l14.096-7.056l-5.224,10.432l-32.336,9.24l4.392,15.392l36.392-10.4l8.112,2.704l-11.424,3.816l-3.736,1.52l-3.232,7.936
				L116.664,292.016z M129.12,281.144l22.016-7.336l20.288,20.288c-10.16,6.448-17.936,15.984-22.256,27.16L129.12,281.144z
				 M201.296,480.648h-40v-72h40V480.648z M217.296,480.648v-120h-16v32h-40v-51.336c0-15.192,8.696-28.784,21.824-35.528
				l62.344,62.344c-2.576,4.488-4.168,9.608-4.168,15.144c0,8.184,3.184,15.872,8.968,21.656l75.72,75.72H217.296z M354.672,480.648
				c-3.848,0-7.624-1.56-10.344-4.28l-82.752-82.752c-2.72-2.72-4.28-6.488-4.28-10.344c0-1.024,0.112-2.032,0.312-3l10.032,10.032
				l11.312-11.312L268.92,368.96c0.976-0.2,1.976-0.312,3-0.312c3.848,0,7.624,1.56,10.344,4.28l20.632,20.632
				c-3.496,5.544-5.6,12.056-5.6,19.088c0,19.848,16.152,36,36,36h24.688l7.032,7.032c2.72,2.72,4.28,6.488,4.28,10.344
				C369.296,474.088,362.736,480.648,354.672,480.648z M441.296,480.648h-59.888c2.4-4.368,3.888-9.304,3.888-14.624
				c0-6.304-1.936-12.296-5.448-17.376h61.448V480.648z M481.296,408.648c0,13.232-10.768,24-24,24h-124c-11.032,0-20-8.968-20-20
				c0-11.032,8.968-20,20-20h92h16h40V408.648z M481.296,376.648h-40v-24h-16v24h-92c-7.032,0-13.544,2.104-19.088,5.6
				l-20.632-20.632c-5.784-5.784-13.472-8.968-21.656-8.968c-5.536,0-10.656,1.592-15.144,4.168l-56.648-56.648l42.24-11.52h33.792
				c6.696,18.848,24.672,32,45.136,32c20.472,0,38.44-13.144,45.136-32h33.792l51.6,14.072c17.352,4.736,29.472,20.6,29.472,38.592
				V376.648z"/>
			<path d="M257.296,240.648c13.232,0,24-10.768,24-24s-10.768-24-24-24c-13.232,0-24,10.768-24,24S244.064,240.648,257.296,240.648
				z M257.296,208.648c4.416,0,8,3.584,8,8s-3.584,8-8,8c-4.416,0-8-3.584-8-8S252.88,208.648,257.296,208.648z"/>
			<path d="M321.296,192.648c-13.232,0-24,10.768-24,24s10.768,24,24,24s24-10.768,24-24S334.528,192.648,321.296,192.648z
				 M321.296,224.648c-4.416,0-8-3.584-8-8s3.584-8,8-8c4.416,0,8,3.584,8,8S325.712,224.648,321.296,224.648z"/>
			<path d="M385.296,192.648c-13.232,0-24,10.768-24,24s10.768,24,24,24s24-10.768,24-24S398.528,192.648,385.296,192.648z
				 M385.296,224.648c-4.416,0-8-3.584-8-8s3.584-8,8-8c4.416,0,8,3.584,8,8S389.712,224.648,385.296,224.648z"/>
		</g>
	</g>
</g>
<g>
</g>
<g>
</g>
<g>
</g>
<g>
</g>
<g>
</g>
<g>
</g>
<g>
</g>
<g>
</g>
<g>
</g>
<g>
</g>
<g>
</g>
<g>
</g>
<g>
</g>
<g>
</g>
<g>
</g>
</svg>
